<?xml version="1.0" encoding="UTF-8"?>
<svg xmlns="http://www.w3.org/2000/svg" xmlns:xlink="http://www.w3.org/1999/xlink" width="14pt" height="13pt" viewBox="0 0 14 13" version="1.1">
<defs>
<clipPath id="clip1">
  <rect x="0" y="0" width="14" height="13"/>
</clipPath>
<g id="surface5" clip-path="url(#clip1)">
<rect x="0" y="0" width="14" height="13" style="fill:rgb(100%,100%,100%);fill-opacity:1;stroke:none;"/>
<path style=" stroke:none;fill-rule:nonzero;fill:rgb(0%,0%,0%);fill-opacity:1;" d="M 7.382812 3.179688 L 12.367188 7.570312 C 12.375 7.59375 12.390625 7.613281 12.414062 7.632812 C 12.445312 7.644531 12.464844 7.648438 12.476562 7.648438 L 12.476562 11.851562 C 12.476562 11.953125 12.4375 12.039062 12.367188 12.101562 C 12.304688 12.171875 12.21875 12.210938 12.117188 12.210938 L 8.117188 12.210938 L 7.195312 10.960938 L 9.570312 9.507812 L 6.195312 6.398438 L 7.570312 9.101562 L 5.195312 10.554688 L 6.039062 12.210938 L 2.648438 12.210938 C 2.542969 12.210938 2.453125 12.171875 2.382812 12.101562 C 2.320312 12.039062 2.289062 11.953125 2.289062 11.851562 L 2.289062 7.648438 C 2.308594 7.648438 2.328125 7.644531 2.351562 7.632812 C 2.382812 7.613281 2.398438 7.59375 2.398438 7.570312 Z M 13.820312 5.945312 C 13.996094 6.113281 14 6.285156 13.835938 6.460938 L 13.367188 7.007812 C 13.199219 7.1875 13.023438 7.191406 12.835938 7.023438 L 7.632812 2.429688 C 7.464844 2.285156 7.296875 2.285156 7.132812 2.429688 L 1.929688 7.023438 C 1.742188 7.191406 1.574219 7.1875 1.429688 7.007812 L 0.929688 6.460938 C 0.765625 6.285156 0.769531 6.113281 0.945312 5.945312 L 6.773438 0.804688 C 6.949219 0.648438 7.152344 0.570312 7.382812 0.570312 C 7.609375 0.570312 7.8125 0.648438 7.992188 0.804688 L 10.289062 2.851562 L 10.289062 1.664062 C 10.289062 1.5625 10.320312 1.476562 10.382812 1.414062 C 10.453125 1.34375 10.546875 1.304688 10.664062 1.304688 L 12.117188 1.304688 C 12.21875 1.304688 12.304688 1.34375 12.367188 1.414062 C 12.4375 1.476562 12.476562 1.5625 12.476562 1.664062 L 12.476562 4.757812 Z M 13.820312 5.945312 "/>
</g>
</defs>
<g id="surface1">
<use xlink:href="#surface5"/>
</g>
</svg>
